<?xml version="1.0" encoding="utf-8"?>
<!-- Generator: Adobe Illustrator 24.2.0, SVG Export Plug-In . SVG Version: 6.00 Build 0)  -->
<!DOCTYPE svg PUBLIC "-//W3C//DTD SVG 1.1//EN" "http://www.w3.org/Graphics/SVG/1.1/DTD/svg11.dtd" [
	<!ENTITY ns_extend "http://ns.adobe.com/Extensibility/1.0/">
	<!ENTITY ns_ai "http://ns.adobe.com/AdobeIllustrator/10.0/">
	<!ENTITY ns_graphs "http://ns.adobe.com/Graphs/1.0/">
	<!ENTITY ns_vars "http://ns.adobe.com/Variables/1.0/">
	<!ENTITY ns_imrep "http://ns.adobe.com/ImageReplacement/1.0/">
	<!ENTITY ns_sfw "http://ns.adobe.com/SaveForWeb/1.0/">
	<!ENTITY ns_custom "http://ns.adobe.com/GenericCustomNamespace/1.0/">
	<!ENTITY ns_adobe_xpath "http://ns.adobe.com/XPath/1.0/">
]>
<svg version="1.1" xmlns:x="&ns_extend;" xmlns:i="&ns_ai;" xmlns:graph="&ns_graphs;"
	 xmlns="http://www.w3.org/2000/svg" xmlns:xlink="http://www.w3.org/1999/xlink" x="0px" y="0px" width="750px" height="750px"
	 viewBox="0 0 750 750" enable-background="new 0 0 750 750" xml:space="preserve">
<metadata>
	<sfw  xmlns="&ns_sfw;">
		<slices></slices>
		<sliceSourceBounds  bottomLeftOrigin="true" height="10022.015" width="9093.114" x="-3360" y="-1726"></sliceSourceBounds>
	</sfw>
</metadata>
<g id="FILL-BACKGROUND">
	<rect fill="#FFFFFF" width="750" height="750"/>
</g>
<g id="N-TEXT">
</g>
<g id="AG-DIAGRAM">
	<g id="POLYLINE_1018_">
		<g>
			<g>
				
					<line fill="none" stroke="#FF6B6B" stroke-width="3.25" stroke-linecap="round" stroke-linejoin="round" x1="98.031" y1="513.856" x2="100.031" y2="513.856"/>
				
					<line fill="none" stroke="#FF6B6B" stroke-width="3.25" stroke-linecap="round" stroke-linejoin="round" stroke-dasharray="3.9993,6.9988" x1="107.03" y1="513.856" x2="675.435" y2="513.856"/>
				
					<line fill="none" stroke="#FF6B6B" stroke-width="3.25" stroke-linecap="round" stroke-linejoin="round" x1="678.934" y1="513.856" x2="680.934" y2="513.856"/>
			</g>
		</g>
	</g>
</g>
<g id="AG-PEOPLE">
	<g id="POLYLINE_975_">
		
			<path fill="none" stroke="#FF6B6B" stroke-width="2.75" stroke-linecap="round" stroke-linejoin="round" stroke-miterlimit="10" d="
			M178.872,469.789c0.18,1.454,0.291,2.943,0.185,4.407c-0.065,0.947-0.267,2.027-0.683,2.864c-0.555,1.073-1.412,1.803-2.269,2.519
			c-1.131,0.911-2.397,1.724-3.642,2.472c-2.745,1.639-5.848,3.239-9.141,2.888c-1.226-0.145-2.272-0.575-3.295-1.198
			c-1.516-0.943-2.604-2.336-3.275-3.944c-0.443-1.027-0.738-2.239-0.671-3.333c0.094-2.116,1.348-3.831,2.858-5.178
			c1.233-1.153,2.577-2.275,3.944-3.267c0.706-0.511,1.515-1.056,2.257-1.512c1.018-0.607,2.194-1.323,2.935-2.204
			c0.074-0.09,0.097-0.12,0.097-0.12c0.067-0.09,0.089-0.119,0.089-0.119c0.061-0.089,0.08-0.118,0.08-0.118
			c0.055-0.088,0.072-0.117,0.072-0.117c0.048-0.087,0.063-0.116,0.063-0.116c0.042-0.087,0.055-0.115,0.055-0.115
			c0.035-0.086,0.046-0.114,0.046-0.114c0.029-0.085,0.038-0.113,0.038-0.113c0.023-0.084,0.026-0.098,0.026-0.098
			c0.017-0.084,0.019-0.098,0.019-0.098c0.011-0.083,0.013-0.097,0.013-0.097c0.006-0.082,0.006-0.096,0.006-0.096
			c0-0.082,0-0.095,0-0.095c-0.005-0.081-0.007-0.094-0.007-0.094c-0.011-0.08-0.013-0.094-0.013-0.094
			c-0.016-0.08-0.02-0.093-0.02-0.093c-0.022-0.079-0.026-0.092-0.026-0.092c-0.411-1.03-0.921-2.064-1.411-3.054
			c-0.361-0.695-0.868-1.81-1.396-2.339c-0.073-0.077-0.097-0.102-0.097-0.102c-0.074-0.073-0.099-0.097-0.099-0.097
			c-0.076-0.069-0.101-0.091-0.101-0.091c-0.077-0.065-0.103-0.086-0.103-0.086c-0.078-0.061-0.105-0.08-0.105-0.08
			c-0.08-0.057-0.106-0.075-0.106-0.075c-0.081-0.053-0.108-0.07-0.108-0.07c-0.082-0.049-0.11-0.064-0.11-0.064
			c-0.084-0.045-0.112-0.059-0.112-0.059c-0.085-0.041-0.114-0.053-0.114-0.053c-0.086-0.037-0.115-0.048-0.115-0.048
			c-0.088-0.033-0.117-0.043-0.117-0.043c-0.089-0.028-0.119-0.037-0.119-0.037c-0.645-0.194-1.309-0.098-1.887,0.035
			c-0.625,0.142-1.254,0.347-1.857,0.565c-2.458,0.87-4.783,2.213-7.195,3.189c-1.263,0.479-2.716,1.014-4.065,0.881
			c-0.066-0.009-0.098-0.014-0.098-0.014c-0.063-0.011-0.095-0.017-0.095-0.017c-1.69-0.389-3.122-1.358-4.458-2.407
			c-0.766-0.578-1.63-0.952-2.51-1.027c-0.921-0.092-1.813,0.169-2.575,0.513c-1.354,0.577-2.703,1.23-3.932,2.044
			c-0.078,0.049-0.091,0.057-0.091,0.057c-0.079,0.042-0.092,0.049-0.092,0.049c-0.08,0.035-0.093,0.041-0.093,0.041
			c-0.081,0.029-0.094,0.033-0.094,0.033c-0.082,0.022-0.095,0.025-0.095,0.025c-0.083,0.015-0.096,0.017-0.096,0.017
			c-0.083,0.008-0.097,0.009-0.097,0.009c-0.084,0.001-0.098,0.001-0.098,0.001c-0.085-0.005-0.1-0.007-0.1-0.007
			c-0.086-0.012-0.101-0.015-0.101-0.015c-0.087-0.019-0.102-0.023-0.102-0.023c-0.088-0.026-0.103-0.03-0.103-0.03
			c-0.089-0.032-0.104-0.038-0.104-0.038c-0.075-0.032-0.105-0.046-0.105-0.046c-0.091-0.046-0.121-0.063-0.121-0.063
			c-0.061-0.035-0.092-0.054-0.092-0.054c-0.061-0.039-0.092-0.06-0.092-0.06c-0.062-0.043-0.093-0.065-0.093-0.065
			c-0.599-0.453-0.995-0.982-1.383-1.525c-0.417-0.6-0.798-1.26-1.143-1.904c-0.86-1.61-1.566-3.323-1.999-5.099
			c-0.156-0.642-0.282-1.323-0.361-1.979c-0.13-1.316-0.271-2.814-0.9-3.97c-0.052-0.09-0.069-0.119-0.069-0.119
			c-0.053-0.085-0.071-0.113-0.071-0.113c-0.055-0.08-0.074-0.106-0.074-0.106c-0.057-0.075-0.076-0.1-0.076-0.1
			c-0.059-0.071-0.079-0.093-0.079-0.093c-0.081-0.087-0.102-0.108-0.102-0.108c-0.084-0.079-0.106-0.098-0.106-0.098
			c-0.087-0.071-0.109-0.088-0.109-0.088c-0.09-0.063-0.113-0.078-0.113-0.078c-0.07-0.042-0.093-0.055-0.093-0.055
			c-0.072-0.037-0.096-0.048-0.096-0.048c-0.073-0.032-0.098-0.042-0.098-0.042c-0.076-0.028-0.102-0.037-0.102-0.037
			c-0.079-0.026-0.106-0.034-0.106-0.034c-0.803-0.229-1.547-0.178-2.314-0.115c-0.998,0.1-2.003,0.321-2.975,0.566
			c-1.421,0.367-2.545,1.188-3.517,2.212c-1.085,1.157-1.922,2.534-2.627,3.949c-1.831,3.691-2.843,7.819-2.734,11.947
			c0.044,1.743,0.329,3.5,0.326,5.246c0.038,2.669-0.262,5.368-1.025,7.931c-0.397,1.214-0.762,2.455-0.892,3.73
			c-0.181,1.58-0.077,3.196,0.308,4.739c0.347,1.438,0.979,2.798,1.636,4.116c1.092,2.17,2.421,4.239,3.978,6.105
			c1.109,1.281,2.263,2.603,3.254,3.98c1.09,1.474,2.072,3.085,2.951,4.692c0.822,1.374,1.996,2.516,3.299,3.434
			c1.013,0.716,2.124,1.313,3.255,1.822c1.003,0.486,5.813,2.201,6.929,2.638c1.358,0.444,3.48,1.309,4.854,1.682
			c1.379,0.362,2.821,0.542,4.238,0.679c2.527,0.243,5.303,0.283,7.847,0.297c6.515-0.09,21.618,0.243,27.951-0.3
			c1.053-0.102,2.184-0.224,3.17-0.583c2.632-0.977,5.048-2.537,7.412-4.03c2.936-1.944,5.999-3.971,8.584-6.373
			c1.472-1.429,2.826-3.097,4.085-4.714c0.922-1.227,2.029-2.627,2.178-4.156c0.093-0.747-0.032-1.476-0.296-2.098
			c-0.031-0.071-0.047-0.106-0.047-0.106c-0.034-0.07-0.051-0.105-0.051-0.105c-0.571-1.079-1.539-1.724-2.525-2.254
			c-1.22-0.633-2.552-1.06-3.878-1.406c-1.92-0.494-3.912-0.764-5.894-0.781c-1.282-0.03-2.575,0.135-3.852,0.216
			c-2.267,0.117-4.559-0.095-6.779-0.56c-1.072-0.235-2.17-0.482-3.188-0.898c-2.494-1.027-4.649-2.74-6.599-4.576"/>
	</g>
	<g id="POLYLINE_974_">
		
			<path fill="none" stroke="#FF6B6B" stroke-width="2.75" stroke-linecap="round" stroke-linejoin="round" stroke-miterlimit="10" d="
			M537.442,343.188c0.077,0.079,0.095,0.099,0.095,0.099c0.068,0.087,0.084,0.109,0.084,0.109c0.046,0.07,0.06,0.095,0.06,0.095
			c0.041,0.075,0.054,0.101,0.054,0.101c0.036,0.08,0.047,0.107,0.047,0.107c0.032,0.084,0.041,0.113,0.041,0.113
			c0.027,0.089,0.035,0.119,0.035,0.119c0.016,0.062,0.023,0.093,0.023,0.093c0.013,0.064,0.02,0.096,0.02,0.096
			c0.149,0.99-0.04,1.855-0.213,2.785c-0.115,0.693-0.994,4.05-1.173,4.815c-0.919,3.646-1.456,7.357-1.326,11.123
			c0.352,11.607,4.891,25.172,7.743,36.431c3.218,11.939,5.682,27.686,8.168,39.858c0.249,1.062,0.511,2.183,1.009,3.163
			c0.137,0.266,0.269,0.471,0.387,0.634c0.057,0.076,0.086,0.114,0.086,0.114c0.059,0.074,0.089,0.11,0.089,0.11
			c0.061,0.071,0.093,0.105,0.093,0.105c0.064,0.068,0.096,0.101,0.096,0.101c0.066,0.065,0.1,0.097,0.1,0.097
			c0.069,0.062,0.103,0.092,0.103,0.092c0.071,0.059,0.107,0.088,0.107,0.088c0.074,0.056,0.111,0.083,0.111,0.083
			c0.076,0.053,0.115,0.079,0.115,0.079c0.079,0.05,0.12,0.075,0.12,0.075c0.082,0.047,0.124,0.07,0.124,0.07
			c0.085,0.044,0.128,0.066,0.128,0.066c1.104,0.515,2.266,0.498,3.441,0.443c2.193-0.148,4.415-0.665,6.547-1.185
			c1.258-0.321,12.735-3.355,14.096-3.742c0.788-0.231,1.605-0.497,2.362-0.816c1.107-0.457,2.263-1.147,3.037-2.007
			c1.103-1.208,1.588-2.693,1.901-4.249c0.435-2.271,0.453-4.663,0.454-6.971c0,0-0.161-9.31-0.161-9.31
			c-0.19-12.648,2.644-47.781,3.382-60.891c0.661-15.097,1.219-30.768-0.593-45.789c-0.67-4.99-1.634-10.157-4.39-14.46
			c-1.484-2.321-3.557-4.246-5.958-5.593c-4.332-2.432-9.295-3.513-14.157-4.31c-4.095-0.656-8.741-1.054-12.889-1.395
			c-7.238-0.588-17.159-1.197-24.419-1.491c-18.398-0.697-37.677-1.07-56.042,0.187c-10.618,0.739-21.407,2.007-31.796,4.361
			c-13.175,2.973-25.982,7.918-38.227,13.568c-6.475,3.067-20.138,9.575-26.494,12.653c-3.199,1.628-6.522,3.305-9.446,5.393
			c-1.464,1.076-3.042,2.337-3.765,4.036c-0.561,1.358-0.371,2.775-0.014,4.132c0.472,1.743,1.225,3.493,1.945,5.149
			c4.249,9.354,11.154,21.972,14.785,31.523c1.995,4.914,3.438,11.037,4.798,16.182c0.541,1.896,1.142,3.829,2.1,5.561
			c0.582,1.051,1.336,2.04,2.282,2.785c0.957,0.759,2.041,1.222,3.201,1.55c2.113,0.58,4.344,0.663,6.524,0.635
			c2.309,0.003,14.236-0.981,16.751-1.135c2.113-0.16,4.33-0.381,6.41-0.788c2.107-0.405,4.194-1.006,6.182-1.815
			c7.339-2.988,15.961-10.24,22.454-14.794c4.709-3.347,9.636-6.625,14.936-8.952c6.658-2.942,13.926-4.373,21.098-5.412
			c3.84-0.564,10.706-1.439,14.419-2.234c3.883-0.787,7.888-1.882,11.657-3.108c5.317-1.693,12.209-4.541,17.429-6.649
			c1.681-0.658,3.512-1.356,5.251-1.842c1.169-0.31,2.506-0.648,3.689-0.453c0.066,0.013,0.099,0.021,0.099,0.021
			c0.064,0.016,0.096,0.024,0.096,0.024c0.062,0.018,0.092,0.027,0.092,0.027c0.089,0.03,0.117,0.041,0.117,0.041
			c0.084,0.035,0.111,0.047,0.111,0.047c0.079,0.039,0.104,0.053,0.104,0.053c0.074,0.044,0.098,0.06,0.098,0.06
			C537.358,343.116,537.379,343.134,537.442,343.188z"/>
	</g>
	<g id="POLYLINE_973_">
		
			<path fill="none" stroke="#FF6B6B" stroke-width="2.75" stroke-linecap="round" stroke-linejoin="round" stroke-miterlimit="10" d="
			M554.399,444.25c0.484,7.169,0.706,14.774,0.682,21.96c0.004,6.446-0.295,13.061-1.391,19.417
			c-0.358,2.087-0.815,4.219-1.367,6.263c-0.679,2.528-1.199,5.144-1.33,7.763c-0.287,5.28,1.261,10.6,6.598,12.61
			c0.969,0.371,1.995,0.613,3.021,0.757c6.639,0.79,14.069,0.781,20.774,0.836c17.036-0.057,44.776,0.117,61.803-0.081
			c2.205-0.058,4.729-0.147,6.93-0.329c1.515-0.15,3.204-0.261,4.56-0.767c0.088-0.039,0.108-0.049,0.108-0.049
			c0.078-0.04,0.097-0.05,0.097-0.05c0.317-0.18,0.576-0.387,0.782-0.582c0.748-0.714,1.149-1.531,1.486-2.419
			c0.334-0.914,0.531-1.887,0.665-2.849c0.221-1.574,0.317-3.181,0.228-4.769c-0.084-1.191-0.215-2.574-0.635-3.682
			c-0.735-1.847-2.312-3.011-4.026-3.803c-1.54-0.697-3.204-1.139-4.849-1.512c-3.25-0.712-6.649-1.102-9.963-1.375
			c-6.588-0.53-13.301-1.666-19.747-3.131c-4.42-1.063-8.886-2.585-12.492-5.435c-0.972-0.753-1.839-1.721-2.709-2.586
			c-1.664-1.66-3.463-3.305-5.274-4.803c-0.736-0.61-1.641-1.323-2.405-1.901c-0.742-0.547-1.554-1.158-2.21-1.811
			c-1.276-1.235-2.349-2.679-3.238-4.213c-1.86-3.212-2.956-6.821-3.744-10.43c-1.494-6.904-2.253-14.303-2.911-21.338"/>
	</g>
	<g id="POLYLINE_972_">
		
			<path fill="none" stroke="#FF6B6B" stroke-width="2.75" stroke-linecap="round" stroke-linejoin="round" stroke-miterlimit="10" d="
			M307.897,471.174c0.819-3.766,1.751-8.384,2.949-12.007c0.932-2.904,2.131-5.774,3.547-8.475
			c4.111-7.941,13.487-20.045,18.692-27.473c3.843-5.324,8.162-12.59,11.556-18.267c1.526-2.444,3.139-4.958,5.049-7.119
			c1.271-1.441,2.841-2.84,4.585-3.632c2.968-1.405,6.706-1.373,9.926-1.626c3.552-0.243,7.138-0.974,10.598-1.793l11.752-3.008"/>
	</g>
	<g id="POLYLINE_783_">
		
			<path fill="none" stroke="#FF6B6B" stroke-width="2.75" stroke-linecap="round" stroke-linejoin="round" stroke-miterlimit="10" d="
			M208.099,451.44c0.797-5.143,0.381-10.416-0.584-15.508c-0.435-2.209-1.001-4.431-1.939-6.484
			c-0.478-1.051-1.161-2.189-1.935-2.998c-0.664-0.7-1.381-1.193-2.208-1.572c-2.3-1.038-4.971-0.839-7.311-0.032
			c-1.902,0.617-3.857,1.742-5.798,2.243c-0.687,0.179-1.398,0.29-2.106,0.343c-1.639,0.132-3.591-0.086-5.114,0.605l-0.691,0.292
			c-0.223,0.093-0.509,0.193-0.69,0.233c-0.088,0.02-0.118,0.025-0.118,0.025c-0.088,0.016-0.118,0.02-0.118,0.02
			c-0.089,0.011-0.118,0.014-0.118,0.014c-0.089,0.006-0.118,0.008-0.118,0.008c-0.089,0.001-0.118,0.001-0.118,0.001
			c-0.089-0.004-0.118-0.007-0.118-0.007c-0.088-0.01-0.118-0.015-0.118-0.015c-0.088-0.016-0.103-0.02-0.103-0.02
			c-0.088-0.022-0.103-0.026-0.103-0.026c-0.088-0.028-0.102-0.033-0.102-0.033c-0.087-0.034-0.102-0.041-0.102-0.041
			c-0.087-0.041-0.102-0.048-0.102-0.048c-0.087-0.048-0.101-0.056-0.101-0.056c-0.086-0.055-0.101-0.065-0.101-0.065
			c-0.071-0.052-0.1-0.073-0.1-0.073c-0.085-0.07-0.113-0.095-0.113-0.095c-0.084-0.079-0.109-0.104-0.109-0.104
			c-0.073-0.077-0.097-0.103-0.097-0.103c-0.072-0.083-0.097-0.112-0.097-0.112c-0.327-0.406-0.505-0.713-0.738-1.105
			c-0.652-1.11-1.377-2.632-2.33-3.468c-0.084-0.07-0.11-0.091-0.11-0.091c-0.079-0.061-0.105-0.08-0.105-0.08
			c-0.08-0.056-0.107-0.075-0.107-0.075c-0.081-0.052-0.109-0.069-0.109-0.069c-0.082-0.048-0.11-0.064-0.11-0.064
			c-0.083-0.044-0.111-0.058-0.111-0.058c-0.084-0.04-0.113-0.053-0.113-0.053c-0.085-0.036-0.114-0.047-0.114-0.047
			c-0.086-0.032-0.115-0.042-0.115-0.042c-0.087-0.028-0.116-0.037-0.116-0.037c-0.088-0.024-0.117-0.032-0.117-0.032
			c-0.089-0.021-0.118-0.027-0.118-0.027c-0.089-0.017-0.119-0.022-0.119-0.022c-0.09-0.013-0.12-0.017-0.12-0.017
			c-1.201-0.147-2.36,0.441-3.227,1.111c-1.256,0.966-2.385,2.341-3.441,3.512c-1.319,1.511-3.317,3.405-4.765,4.822
			c-0.414,0.405-1.171,1.246-1.591,1.616c-0.114,0.101-0.193,0.162-0.231,0.193c-0.078,0.059-0.117,0.088-0.117,0.088
			c-0.079,0.055-0.119,0.082-0.119,0.082c-0.081,0.051-0.121,0.076-0.121,0.076c-0.082,0.047-0.103,0.058-0.103,0.058
			c-0.084,0.043-0.105,0.053-0.105,0.053c-0.086,0.039-0.107,0.048-0.107,0.048c-0.088,0.034-0.11,0.042-0.11,0.042
			c-0.09,0.03-0.113,0.037-0.113,0.037c-0.069,0.019-0.092,0.025-0.092,0.025c-0.07,0.016-0.094,0.021-0.094,0.021
			c-0.072,0.014-0.096,0.018-0.096,0.018c-0.074,0.01-0.098,0.013-0.098,0.013c-0.061,0.006-0.097,0.009-0.097,0.009
			c-0.073,0.004-0.11,0.006-0.11,0.006c-0.075,0.001-0.112,0.001-0.112,0.001c-1.146-0.043-2.265-0.496-3.345-0.789
			c-1.184-0.343-2.443-0.608-3.675-0.557c-1.722,0.056-3.408,0.545-5.009,1.159c-2.85,1.124-5.692,2.68-8.373,4.159
			c-3.424,1.94-6.786,4.128-9.72,6.761"/>
	</g>
	<g id="POLYLINE_782_">
		
			<path fill="none" stroke="#FF6B6B" stroke-width="2.75" stroke-linecap="round" stroke-linejoin="round" stroke-miterlimit="10" d="
			M208.521,445.312c1.268-0.691,2.837-1.367,3.838-2.391c1.105-1.094,1.68-2.4,2.223-3.797c0.469-1.25,0.906-2.729,1.263-4.026
			c1.103-4.137,2.597-10.068,4.014-14.029c2.723-7.763,6.485-15.244,10.754-22.267c5.008-8.183,10.889-15.977,17.601-22.841
			c4.937-5.036,10.495-9.613,16.304-13.607c13.05-8.958,27.782-15.494,42.555-21.051c17.133-6.205,35.634-12.113,53.225-16.879"/>
	</g>
	<g id="POLYLINE_426_">
		
			<path fill="none" stroke="#FF6B6B" stroke-width="2.75" stroke-linecap="round" stroke-linejoin="round" stroke-miterlimit="10" d="
			M264.526,462.303c19.351,3.689,40.609,7.698,59.486,12.988c3.67,1.046,7.506,1.975,11.248,2.724
			c4.595,0.919,9.34,1.627,14.003,2.094c6.753,0.725,14.045,0.769,20.851,0.748c6.596,0.07,14.439,0.378,21.018,0.83
			c15.015,0.962,45.281,5.026,60.444,6.23c2.906,0.192,5.986,0.335,8.895,0.195c1.237-0.067,2.514-0.179,3.722-0.467
			c1.177-0.303,2.218-0.766,3.312-1.253c1.633-0.756,3.209-1.672,4.692-2.69c0.881-0.587,1.716-1.296,2.605-1.87
			c1.667-1.069,3.558-1.769,5.493-2.166c2.495-0.533,5.096-0.499,7.633-0.426c4.434,0.131,9.147,0.569,13.55,1.118
			c0.629,0.081,1.305,0.185,1.928,0.309c2.48,0.484,5.091,1.417,6.944,3.144c1.327,1.212,2.103,2.754,2.499,4.409
			c0.635,2.486,0.402,5.15-0.525,7.533c-0.61,1.671-1.683,3.326-2.678,4.801c-1.115,1.667-2.331,3.393-3.611,4.927
			c-0.755,0.907-1.664,1.866-2.648,2.471c-1.767,1.126-3.775,1.923-5.73,2.664c-1.565,0.566-3.198,1.147-4.808,1.555
			c-2.238,0.579-4.56,0.971-6.856,1.231c-3.736,0.419-7.632,0.508-11.389,0.421c-3.487-0.091-7.074-0.356-10.514-0.936
			c-1.308-0.221-2.661-0.501-3.945-0.832c-0.775-0.204-1.595-0.445-2.377-0.617c-3.409-0.755-7.031-1.117-10.511-1.404
			c-15.232-1.119-30.982-0.775-46.21,0.37c-9.935,0.763-20.375,2.09-30.332,2.315c-5.04,0.121-10.278,0.079-15.291-0.48
			c-2.108-0.24-4.3-0.63-6.413-0.838c-2.84-0.301-5.766-0.459-8.622-0.459c-3.093,0-6.249,0.185-9.321,0.546
			c-2.668,0.327-5.46,0.817-8.136,1.085c-19.52,2.044-50.876,1.06-70.726,1.283c-2.223-0.002-4.569-0.084-6.785-0.284
			c-4.396-0.42-8.891-1.217-12.822-3.317c-1.244-0.665-2.388-1.533-3.507-2.384c-2.014-1.566-3.91-3.339-5.53-5.313
			c-1.626-1.904-2.699-3.968-3.975-6.035c-1.087-1.809-2.388-3.817-3.635-5.529c-0.06-0.078-0.076-0.097-0.076-0.097
			c-0.064-0.075-0.081-0.094-0.081-0.094c-0.086-0.091-0.104-0.109-0.104-0.109c-0.074-0.07-0.092-0.087-0.092-0.087
			c-0.078-0.067-0.098-0.084-0.098-0.084c-0.082-0.065-0.124-0.097-0.124-0.097c-1.156-0.809-2.526-0.939-3.861-1.009
			c-2.034-0.063-4.093,0.201-6.097,0.536"/>
	</g>
</g>
<g id="AG-OUTLINE">
	<g id="POLYLINE_994_">
		
			<path fill="none" stroke="#FF6B6B" stroke-width="3.5" stroke-linecap="round" stroke-linejoin="round" stroke-miterlimit="10" d="
			M128.044,445.109c-0.051-0.075-0.077-0.112-0.077-0.112c-0.053-0.071-0.08-0.105-0.08-0.105c-0.054-0.066-0.082-0.098-0.082-0.098
			c-0.085-0.091-0.099-0.105-0.099-0.105c-0.088-0.083-0.103-0.096-0.103-0.096c-0.076-0.062-0.091-0.074-0.091-0.074
			c-0.078-0.057-0.094-0.067-0.094-0.067c-0.08-0.051-0.096-0.06-0.096-0.06c-0.082-0.045-0.099-0.053-0.099-0.053
			c-0.084-0.039-0.102-0.046-0.102-0.046c-0.085-0.033-0.11-0.042-0.11-0.042c-0.078-0.026-0.105-0.035-0.105-0.035
			c-0.082-0.024-0.11-0.032-0.11-0.032c-0.847-0.215-1.606-0.15-2.414-0.071c-0.935,0.106-1.88,0.316-2.792,0.546
			c-1.421,0.367-2.545,1.188-3.517,2.212c-1.085,1.157-1.922,2.534-2.627,3.949c-1.831,3.691-2.843,7.819-2.734,11.947
			c0.044,1.743,0.329,3.5,0.326,5.246c0.038,2.669-0.262,5.368-1.025,7.931c-0.397,1.214-0.762,2.455-0.892,3.73
			c-0.181,1.58-0.077,3.196,0.308,4.739c0.347,1.438,0.979,2.798,1.636,4.116c1.092,2.17,2.421,4.239,3.978,6.105
			c1.242,1.426,2.511,2.902,3.596,4.455c0.987,1.365,1.859,2.87,2.682,4.337c0.847,1.369,2.042,2.5,3.362,3.409
			c0.975,0.674,2.039,1.241,3.119,1.727c1.003,0.485,5.813,2.201,6.929,2.638c1.358,0.444,3.48,1.309,4.854,1.682
			c1.379,0.362,2.821,0.542,4.238,0.679c2.527,0.243,5.303,0.283,7.847,0.297c6.515-0.09,21.618,0.243,27.951-0.3
			c1.053-0.102,2.184-0.224,3.17-0.583c2.632-0.977,5.048-2.537,7.412-4.03c2.936-1.944,5.999-3.971,8.584-6.373
			c1.472-1.429,2.826-3.097,4.085-4.714c0.922-1.227,2.029-2.627,2.178-4.156c0.093-0.745-0.031-1.47-0.293-2.091
			c-0.037-0.085-0.05-0.113-0.05-0.113c-0.041-0.084-0.055-0.112-0.055-0.112c-0.044-0.083-0.06-0.111-0.06-0.111
			c-0.048-0.083-0.064-0.11-0.064-0.11c-0.051-0.082-0.069-0.109-0.069-0.109c-0.29-0.432-0.631-0.77-0.98-1.05
			c0.158-0.139,0.759-0.16,0.995-0.217c0.44-0.065,1.042-0.145,1.484-0.195c1.403-0.153,2.846-0.246,4.255-0.13
			c1.021,0.088,2.147,0.305,2.986,0.845c0.09,0.06,0.134,0.091,0.134,0.091c0.085,0.063,0.126,0.095,0.126,0.095
			c0.08,0.066,0.1,0.083,0.1,0.083c0.076,0.068,0.095,0.086,0.095,0.086c0.089,0.089,0.107,0.107,0.107,0.107
			c0.067,0.074,0.083,0.093,0.083,0.093c1.356,1.75,2.562,3.792,3.743,5.664c1.224,1.996,2.471,4.283,3.975,6.035
			c1.828,2.224,3.99,4.186,6.3,5.897c0.865,0.648,1.786,1.286,2.736,1.799c1.428,0.774,2.964,1.366,4.52,1.827
			c3.202,0.945,6.58,1.39,9.905,1.613c1.684,0.108,3.496,0.159,5.183,0.16c16.269-0.113,46.927,0.392,62.669-0.615
			c4.851-0.292,9.856-0.789,14.648-1.556c4.101-0.565,8.289-0.809,12.428-0.728c3.94,0.069,7.914,0.463,11.805,1.073
			c3.024,0.418,6.162,0.619,9.212,0.703c10.693,0.288,21.692-0.814,32.332-1.855c13.765-1.219,28.167-1.848,41.977-1.369
			c6.396,0.249,13.103,0.526,19.398,1.699c1.476,0.267,2.955,0.736,4.413,1.079c2.411,0.565,4.929,0.933,7.394,1.176
			c4.593,0.428,9.33,0.5,13.935,0.244c4.14-0.257,8.331-0.82,12.296-2.071c2.015-0.66,4.107-1.406,6.04-2.282
			c1.097-0.501,2.222-1.076,3.191-1.787c0.877-0.655,1.401-1.3,2.09-2.085c0.956-1.132,1.868-2.4,2.717-3.613
			c0.885-1.344,2.093-2.994,2.821-4.438c0.603-1.172,1.082-2.424,1.358-3.715c0.379-1.744,0.371-3.576-0.039-5.314
			c-0.325-1.517-1.05-3.042-2.076-4.121c-2.037-2.179-4.848-3.113-7.676-3.664c-2.562-0.446-5.674-0.71-8.27-0.964
			c-3.145-0.259-6.521-0.459-9.666-0.453c-3.094,0.001-6.258,0.478-9.049,1.867c-0.921,0.454-1.795,1.023-2.602,1.658
			c-0.786,0.592-1.619,1.173-2.451,1.699c-1.324,0.838-2.723,1.593-4.159,2.221c-0.867,0.37-1.849,0.78-2.752,1.001
			c-1.967,0.453-4.035,0.505-6.046,0.524c-3.292,0-6.804-0.243-10.086-0.533c-20.99-2.044-51.819-6.406-72.692-6.688
			c-6.25-0.171-13.417,0.021-19.648-0.337c-5.124-0.286-10.336-0.851-15.401-1.678c-4.615-0.753-9.304-1.757-13.824-2.959
			c-5.924-1.668-12.595-3.415-18.598-4.801c0.819-3.766,1.751-8.384,2.949-12.007c0.932-2.904,2.131-5.774,3.547-8.475
			c4.111-7.941,13.487-20.045,18.692-27.473c3.843-5.324,8.162-12.59,11.556-18.267c1.526-2.444,3.139-4.958,5.049-7.119
			c1.271-1.441,2.841-2.84,4.585-3.632c2.968-1.405,6.706-1.373,9.926-1.626c3.552-0.243,7.138-0.974,10.598-1.793l11.752-3.008
			c1.168,0.924,2.559,1.432,3.996,1.744c2.301,0.486,4.7,0.489,7.042,0.4c4.135-0.265,15.24-0.998,19.291-1.474
			c2.511-0.326,5.027-0.869,7.413-1.722c2.401-0.844,4.698-2.026,6.874-3.34c4.278-2.505,12.795-9.012,16.905-11.958
			c4.709-3.347,9.636-6.625,14.936-8.952c6.658-2.942,13.926-4.373,21.098-5.412c3.84-0.564,10.706-1.439,14.419-2.234
			c3.883-0.787,7.888-1.882,11.657-3.108c5.317-1.693,12.209-4.541,17.429-6.649c1.681-0.658,3.512-1.356,5.251-1.842
			c1.169-0.31,2.506-0.648,3.689-0.453c0.066,0.013,0.099,0.021,0.099,0.021c0.064,0.016,0.096,0.024,0.096,0.024
			c0.062,0.018,0.092,0.027,0.092,0.027c0.089,0.03,0.117,0.041,0.117,0.041c0.084,0.035,0.111,0.047,0.111,0.047
			c0.079,0.039,0.104,0.053,0.104,0.053c0.074,0.044,0.098,0.06,0.098,0.06c0.091,0.066,0.112,0.083,0.112,0.083
			c0.082,0.074,0.102,0.093,0.102,0.093c0.073,0.082,0.091,0.103,0.091,0.103c0.065,0.09,0.08,0.113,0.08,0.113
			c0.043,0.073,0.057,0.098,0.057,0.098c0.039,0.077,0.051,0.104,0.051,0.104c0.034,0.082,0.044,0.11,0.044,0.11
			c0.029,0.086,0.038,0.116,0.038,0.116c0.017,0.06,0.025,0.091,0.025,0.091c0.015,0.062,0.022,0.094,0.022,0.094
			c0.013,0.065,0.018,0.098,0.018,0.098c0.137,0.977-0.047,1.834-0.218,2.752c-0.309,1.478-1.121,4.516-1.451,5.992
			c-0.874,3.679-1.222,7.422-1.001,11.198c0.711,12.25,5.578,26.239,8.449,38.156c2.347,9.254,4.886,23.672,6.651,33.177
			c0.288,1.442,0.649,3.337,1.021,4.763c0.253,0.963,0.602,2.036,1.195,2.813c0.058,0.074,0.087,0.11,0.087,0.11
			c0.06,0.071,0.09,0.105,0.09,0.105c0.062,0.068,0.094,0.101,0.094,0.101c0.064,0.065,0.097,0.097,0.097,0.097
			c0.067,0.062,0.101,0.093,0.101,0.093c0.069,0.059,0.104,0.089,0.104,0.089c0.072,0.057,0.108,0.084,0.108,0.084
			c0.074,0.054,0.112,0.08,0.112,0.08c0.077,0.051,0.116,0.076,0.116,0.076c0.08,0.048,0.12,0.071,0.12,0.071
			c0.083,0.045,0.125,0.067,0.125,0.067c0.086,0.042,0.129,0.063,0.129,0.063c0.123,0.067,0.169,0.065,0.226,0.095
			c0.101,0.046,0.229,0.076,0.288,0.099c0.296,2.752,0.4,6.507,0.529,9.284c0.217,6.761,0.323,13.91,0.028,20.664
			c-0.238,4.671-0.754,9.451-1.707,14.03c-0.393,1.995-1.001,3.998-1.441,5.982c-0.436,2.017-0.748,4.101-0.79,6.166
			c-0.04,2.068,0.186,4.175,0.92,6.12c0.755,2.073,2.23,3.938,4.099,5.01c1.421,0.841,3.003,1.297,4.625,1.527
			c12.557,1.38,33.262,0.663,46.083,0.837c10.267-0.133,33.964,0.37,43.958-0.457c1.331-0.146,2.775-0.251,4.028-0.72
			c0.088-0.039,0.108-0.049,0.108-0.049c0.078-0.04,0.097-0.05,0.097-0.05c0.317-0.18,0.576-0.387,0.782-0.582
			c0.748-0.714,1.149-1.531,1.486-2.419c0.334-0.914,0.531-1.887,0.665-2.849c0.221-1.574,0.317-3.181,0.228-4.769
			c-0.084-1.191-0.215-2.574-0.635-3.682c-0.735-1.847-2.312-3.011-4.026-3.803c-1.54-0.697-3.204-1.139-4.849-1.512
			c-3.25-0.712-6.649-1.102-9.963-1.375c-6.588-0.53-13.301-1.666-19.747-3.131c-4.42-1.063-8.886-2.585-12.492-5.435
			c-0.972-0.753-1.839-1.721-2.709-2.586c-1.664-1.66-3.463-3.305-5.274-4.803c-0.736-0.61-1.641-1.323-2.405-1.901
			c-0.742-0.547-1.554-1.158-2.21-1.811c-1.276-1.235-2.349-2.679-3.238-4.213c-1.86-3.212-2.956-6.821-3.744-10.43
			c-1.494-6.904-2.253-14.303-2.911-21.338c0.73-1.112,1.089-2.348,1.335-3.636c0.411-2.258,0.429-4.636,0.426-6.927l-0.161-9.209
			c-0.19-12.648,2.644-47.781,3.382-60.891c0.661-15.097,1.219-30.768-0.593-45.789c-0.67-4.99-1.634-10.157-4.39-14.46
			c-1.484-2.321-3.557-4.246-5.958-5.593c-4.332-2.432-9.295-3.513-14.157-4.31c-4.095-0.656-8.741-1.054-12.889-1.395
			c-7.238-0.588-17.159-1.197-24.419-1.491c-18.398-0.697-37.677-1.07-56.042,0.187c-10.618,0.739-21.407,2.007-31.796,4.361
			c-13.175,2.973-25.982,7.918-38.227,13.568c-6.475,3.067-20.138,9.575-26.494,12.653c-3.39,1.722-6.903,3.493-9.956,5.77
			c-1.055,0.808-2.155,1.764-2.856,2.884c-0.538,0.844-0.78,1.82-0.752,2.758c-17.594,4.768-36.09,10.672-53.225,16.879
			c-14.776,5.559-29.504,12.092-42.555,21.051c-5.809,3.995-11.366,8.571-16.304,13.607c-6.712,6.864-12.593,14.658-17.601,22.841
			c-4.269,7.023-8.032,14.504-10.754,22.267c-1.418,3.951-2.918,9.934-4.014,14.029c-0.35,1.288-0.794,2.775-1.263,4.026
			c-0.477,1.259-1.111,2.636-2.027,3.597c-1.139,1.234-2.622,1.815-4.034,2.591c-0.024-2.525-0.3-5.114-0.693-7.608
			c-0.355-2.192-0.818-4.41-1.55-6.509c-0.655-1.862-1.599-3.849-3.07-5.166c-1.353-1.208-3.066-1.774-4.843-1.851
			c-1.217-0.054-2.441,0.129-3.607,0.47c-1.627,0.456-3.407,1.353-4.98,1.972c-1.137,0.443-2.341,0.729-3.559,0.813
			c-1.639,0.132-3.591-0.086-5.114,0.605l-0.691,0.292c-0.223,0.093-0.509,0.193-0.69,0.233c-0.088,0.02-0.118,0.025-0.118,0.025
			c-0.088,0.016-0.118,0.02-0.118,0.02c-0.089,0.011-0.118,0.014-0.118,0.014c-0.089,0.006-0.118,0.008-0.118,0.008
			c-0.089,0.001-0.118,0.001-0.118,0.001c-0.089-0.004-0.118-0.007-0.118-0.007c-0.088-0.01-0.118-0.015-0.118-0.015
			c-0.088-0.016-0.103-0.02-0.103-0.02c-0.088-0.022-0.103-0.026-0.103-0.026c-0.088-0.028-0.102-0.033-0.102-0.033
			c-0.087-0.034-0.102-0.041-0.102-0.041c-0.087-0.041-0.102-0.048-0.102-0.048c-0.087-0.048-0.101-0.056-0.101-0.056
			c-0.086-0.055-0.101-0.065-0.101-0.065c-0.071-0.052-0.1-0.073-0.1-0.073c-0.085-0.07-0.113-0.095-0.113-0.095
			c-0.084-0.079-0.109-0.104-0.109-0.104c-0.073-0.077-0.097-0.103-0.097-0.103c-0.072-0.083-0.097-0.112-0.097-0.112
			c-0.327-0.406-0.505-0.713-0.738-1.105c-0.652-1.11-1.377-2.632-2.33-3.468c-0.084-0.07-0.11-0.091-0.11-0.091
			c-0.079-0.061-0.105-0.08-0.105-0.08c-0.08-0.056-0.107-0.075-0.107-0.075c-0.081-0.052-0.109-0.069-0.109-0.069
			c-0.082-0.048-0.11-0.064-0.11-0.064c-0.083-0.044-0.111-0.058-0.111-0.058c-0.084-0.04-0.113-0.053-0.113-0.053
			c-0.085-0.036-0.114-0.047-0.114-0.047c-0.086-0.032-0.115-0.042-0.115-0.042c-0.087-0.028-0.116-0.037-0.116-0.037
			c-0.088-0.024-0.117-0.032-0.117-0.032c-0.089-0.021-0.118-0.027-0.118-0.027c-0.089-0.017-0.119-0.022-0.119-0.022
			c-0.09-0.013-0.12-0.017-0.12-0.017c-1.201-0.147-2.36,0.441-3.227,1.111c-1.256,0.966-2.385,2.341-3.441,3.512
			c-1.319,1.511-3.317,3.405-4.765,4.822c-0.414,0.405-1.171,1.246-1.591,1.616c-0.114,0.101-0.193,0.162-0.231,0.193
			c-0.078,0.059-0.117,0.088-0.117,0.088c-0.079,0.055-0.119,0.082-0.119,0.082c-0.081,0.051-0.121,0.076-0.121,0.076
			c-0.082,0.047-0.103,0.058-0.103,0.058c-0.084,0.043-0.105,0.053-0.105,0.053c-0.086,0.039-0.107,0.048-0.107,0.048
			c-0.088,0.034-0.11,0.042-0.11,0.042c-0.09,0.03-0.113,0.037-0.113,0.037c-0.069,0.019-0.092,0.025-0.092,0.025
			c-0.07,0.016-0.094,0.021-0.094,0.021c-0.072,0.014-0.096,0.018-0.096,0.018c-0.074,0.01-0.098,0.013-0.098,0.013
			c-0.061,0.006-0.097,0.009-0.097,0.009c-0.073,0.004-0.11,0.006-0.11,0.006c-0.075,0.001-0.112,0.001-0.112,0.001
			c-1.146-0.043-2.265-0.496-3.345-0.789c-1.184-0.343-2.443-0.608-3.675-0.557c-1.722,0.056-3.408,0.545-5.009,1.159
			c-2.85,1.124-5.692,2.68-8.373,4.159C134.34,440.287,130.978,442.476,128.044,445.109z"/>
	</g>
</g>
</svg>
